<mxfile host="app.diagrams.net" modified="2023-09-18T16:40:36.174Z" agent="Mozilla/5.0 (Windows NT 10.0; Win64; x64) AppleWebKit/537.36 (KHTML, like Gecko) Chrome/114.0.0.0 YaBrowser/23.7.5.739 Yowser/2.5 Safari/537.36" etag="ElTcP6htg4l5foY960CO" version="21.4.0" type="device">
  <diagram name="Страница 1" id="louH8l6yzZR6JQhhxt4Z">
    <mxGraphModel dx="-588" dy="611" grid="1" gridSize="10" guides="1" tooltips="1" connect="1" arrows="1" fold="1" page="1" pageScale="1" pageWidth="827" pageHeight="1169" math="0" shadow="0">
      <root>
        <mxCell id="0" />
        <mxCell id="1" parent="0" />
        <mxCell id="RtoPhG0S8wIWp4orcQky-1" value="2019 год" style="ellipse;whiteSpace=wrap;html=1;" vertex="1" parent="1">
          <mxGeometry x="2370" y="170" width="120" height="80" as="geometry" />
        </mxCell>
        <mxCell id="RtoPhG0S8wIWp4orcQky-2" style="edgeStyle=orthogonalEdgeStyle;rounded=0;orthogonalLoop=1;jettySize=auto;html=1;entryX=0.5;entryY=1;entryDx=0;entryDy=0;" edge="1" parent="1" source="RtoPhG0S8wIWp4orcQky-8" target="RtoPhG0S8wIWp4orcQky-1">
          <mxGeometry relative="1" as="geometry" />
        </mxCell>
        <mxCell id="RtoPhG0S8wIWp4orcQky-3" style="edgeStyle=orthogonalEdgeStyle;rounded=0;orthogonalLoop=1;jettySize=auto;html=1;entryX=0.5;entryY=0;entryDx=0;entryDy=0;" edge="1" parent="1" source="RtoPhG0S8wIWp4orcQky-8" target="RtoPhG0S8wIWp4orcQky-13">
          <mxGeometry relative="1" as="geometry" />
        </mxCell>
        <mxCell id="RtoPhG0S8wIWp4orcQky-4" style="edgeStyle=orthogonalEdgeStyle;rounded=0;orthogonalLoop=1;jettySize=auto;html=1;exitDx=0;exitDy=0;entryX=0.5;entryY=0;entryDx=0;entryDy=0;" edge="1" parent="1" source="RtoPhG0S8wIWp4orcQky-18" target="RtoPhG0S8wIWp4orcQky-11">
          <mxGeometry relative="1" as="geometry" />
        </mxCell>
        <mxCell id="RtoPhG0S8wIWp4orcQky-5" style="edgeStyle=orthogonalEdgeStyle;rounded=0;orthogonalLoop=1;jettySize=auto;html=1;exitDx=0;exitDy=0;entryX=0.5;entryY=0;entryDx=0;entryDy=0;" edge="1" parent="1" source="RtoPhG0S8wIWp4orcQky-18" target="RtoPhG0S8wIWp4orcQky-15">
          <mxGeometry relative="1" as="geometry" />
        </mxCell>
        <mxCell id="RtoPhG0S8wIWp4orcQky-6" style="edgeStyle=orthogonalEdgeStyle;rounded=0;orthogonalLoop=1;jettySize=auto;html=1;" edge="1" parent="1" source="RtoPhG0S8wIWp4orcQky-8" target="RtoPhG0S8wIWp4orcQky-19">
          <mxGeometry relative="1" as="geometry">
            <mxPoint x="2700" y="420" as="targetPoint" />
          </mxGeometry>
        </mxCell>
        <mxCell id="RtoPhG0S8wIWp4orcQky-7" style="edgeStyle=orthogonalEdgeStyle;rounded=0;orthogonalLoop=1;jettySize=auto;html=1;exitX=0.5;exitY=1;exitDx=0;exitDy=0;" edge="1" parent="1" source="RtoPhG0S8wIWp4orcQky-8">
          <mxGeometry relative="1" as="geometry">
            <mxPoint x="2800" y="610" as="targetPoint" />
          </mxGeometry>
        </mxCell>
        <mxCell id="RtoPhG0S8wIWp4orcQky-8" value="Абитуриент" style="rounded=1;whiteSpace=wrap;html=1;" vertex="1" parent="1">
          <mxGeometry x="2370" y="335" width="120" height="60" as="geometry" />
        </mxCell>
        <mxCell id="RtoPhG0S8wIWp4orcQky-9" style="edgeStyle=orthogonalEdgeStyle;rounded=0;orthogonalLoop=1;jettySize=auto;html=1;" edge="1" parent="1" source="RtoPhG0S8wIWp4orcQky-11" target="RtoPhG0S8wIWp4orcQky-20">
          <mxGeometry relative="1" as="geometry">
            <mxPoint x="2100" y="530" as="targetPoint" />
          </mxGeometry>
        </mxCell>
        <mxCell id="RtoPhG0S8wIWp4orcQky-10" style="edgeStyle=orthogonalEdgeStyle;rounded=0;orthogonalLoop=1;jettySize=auto;html=1;entryX=0.5;entryY=0;entryDx=0;entryDy=0;" edge="1" parent="1" source="RtoPhG0S8wIWp4orcQky-11" target="RtoPhG0S8wIWp4orcQky-31">
          <mxGeometry relative="1" as="geometry" />
        </mxCell>
        <mxCell id="RtoPhG0S8wIWp4orcQky-11" value="Информатика" style="rounded=1;whiteSpace=wrap;html=1;" vertex="1" parent="1">
          <mxGeometry x="2220" y="500" width="120" height="60" as="geometry" />
        </mxCell>
        <mxCell id="RtoPhG0S8wIWp4orcQky-12" style="edgeStyle=orthogonalEdgeStyle;rounded=0;orthogonalLoop=1;jettySize=auto;html=1;" edge="1" parent="1" source="RtoPhG0S8wIWp4orcQky-13" target="RtoPhG0S8wIWp4orcQky-29">
          <mxGeometry relative="1" as="geometry">
            <mxPoint x="2430" y="660" as="targetPoint" />
          </mxGeometry>
        </mxCell>
        <mxCell id="RtoPhG0S8wIWp4orcQky-13" value="Русский язык" style="rounded=1;whiteSpace=wrap;html=1;" vertex="1" parent="1">
          <mxGeometry x="2370" y="500" width="120" height="60" as="geometry" />
        </mxCell>
        <mxCell id="RtoPhG0S8wIWp4orcQky-14" style="edgeStyle=orthogonalEdgeStyle;rounded=0;orthogonalLoop=1;jettySize=auto;html=1;entryX=0.5;entryY=0;entryDx=0;entryDy=0;" edge="1" parent="1" source="RtoPhG0S8wIWp4orcQky-15" target="RtoPhG0S8wIWp4orcQky-25">
          <mxGeometry relative="1" as="geometry" />
        </mxCell>
        <mxCell id="RtoPhG0S8wIWp4orcQky-15" value="Математика" style="rounded=1;whiteSpace=wrap;html=1;" vertex="1" parent="1">
          <mxGeometry x="2530" y="500" width="120" height="60" as="geometry" />
        </mxCell>
        <mxCell id="RtoPhG0S8wIWp4orcQky-16" value="" style="edgeStyle=orthogonalEdgeStyle;rounded=0;orthogonalLoop=1;jettySize=auto;html=1;exitX=0.5;exitY=1;exitDx=0;exitDy=0;entryDx=0;entryDy=0;" edge="1" parent="1" source="RtoPhG0S8wIWp4orcQky-8" target="RtoPhG0S8wIWp4orcQky-18">
          <mxGeometry relative="1" as="geometry">
            <mxPoint x="2430" y="395" as="sourcePoint" />
            <mxPoint x="2590" y="500" as="targetPoint" />
          </mxGeometry>
        </mxCell>
        <mxCell id="RtoPhG0S8wIWp4orcQky-17" value="" style="edgeStyle=orthogonalEdgeStyle;rounded=0;orthogonalLoop=1;jettySize=auto;html=1;exitX=0.5;exitY=1;exitDx=0;exitDy=0;entryDx=0;entryDy=0;" edge="1" parent="1" source="RtoPhG0S8wIWp4orcQky-8" target="RtoPhG0S8wIWp4orcQky-18">
          <mxGeometry relative="1" as="geometry">
            <mxPoint x="2430" y="395" as="sourcePoint" />
            <mxPoint x="2280" y="500" as="targetPoint" />
          </mxGeometry>
        </mxCell>
        <mxCell id="RtoPhG0S8wIWp4orcQky-18" value="" style="shape=waypoint;sketch=0;fillStyle=solid;size=6;pointerEvents=1;points=[];fillColor=none;resizable=0;rotatable=0;perimeter=centerPerimeter;snapToPoint=1;" vertex="1" parent="1">
          <mxGeometry x="2420" y="430" width="20" height="20" as="geometry" />
        </mxCell>
        <mxCell id="RtoPhG0S8wIWp4orcQky-19" value="В квартире" style="rounded=1;whiteSpace=wrap;html=1;" vertex="1" parent="1">
          <mxGeometry x="2670" y="420" width="120" height="60" as="geometry" />
        </mxCell>
        <mxCell id="RtoPhG0S8wIWp4orcQky-20" value="81" style="rounded=1;whiteSpace=wrap;html=1;" vertex="1" parent="1">
          <mxGeometry x="1970" y="500" width="120" height="60" as="geometry" />
        </mxCell>
        <mxCell id="RtoPhG0S8wIWp4orcQky-21" value="Вступительные испытание в вузе" style="rounded=1;whiteSpace=wrap;html=1;" vertex="1" parent="1">
          <mxGeometry x="2740" y="610" width="120" height="60" as="geometry" />
        </mxCell>
        <mxCell id="RtoPhG0S8wIWp4orcQky-22" value="Сдавал" style="text;html=1;strokeColor=none;fillColor=none;align=center;verticalAlign=middle;whiteSpace=wrap;rounded=0;" vertex="1" parent="1">
          <mxGeometry x="2440" y="405" width="60" height="30" as="geometry" />
        </mxCell>
        <mxCell id="RtoPhG0S8wIWp4orcQky-23" value="Когда" style="text;html=1;strokeColor=none;fillColor=none;align=center;verticalAlign=middle;whiteSpace=wrap;rounded=0;" vertex="1" parent="1">
          <mxGeometry x="2430" y="270" width="60" height="30" as="geometry" />
        </mxCell>
        <mxCell id="RtoPhG0S8wIWp4orcQky-24" value="Планирует проживать" style="text;html=1;strokeColor=none;fillColor=none;align=center;verticalAlign=middle;whiteSpace=wrap;rounded=0;" vertex="1" parent="1">
          <mxGeometry x="2500" y="330" width="60" height="30" as="geometry" />
        </mxCell>
        <mxCell id="RtoPhG0S8wIWp4orcQky-25" value="80" style="rounded=1;whiteSpace=wrap;html=1;" vertex="1" parent="1">
          <mxGeometry x="2530" y="660" width="120" height="60" as="geometry" />
        </mxCell>
        <mxCell id="RtoPhG0S8wIWp4orcQky-26" value="В форме" style="text;html=1;strokeColor=none;fillColor=none;align=center;verticalAlign=middle;whiteSpace=wrap;rounded=0;" vertex="1" parent="1">
          <mxGeometry x="2820" y="580" width="60" height="30" as="geometry" />
        </mxCell>
        <mxCell id="RtoPhG0S8wIWp4orcQky-27" value="С результатом" style="text;html=1;strokeColor=none;fillColor=none;align=center;verticalAlign=middle;whiteSpace=wrap;rounded=0;" vertex="1" parent="1">
          <mxGeometry x="2610" y="620" width="60" height="30" as="geometry" />
        </mxCell>
        <mxCell id="RtoPhG0S8wIWp4orcQky-28" value="С результатом" style="text;html=1;strokeColor=none;fillColor=none;align=center;verticalAlign=middle;whiteSpace=wrap;rounded=0;" vertex="1" parent="1">
          <mxGeometry x="2110" y="490" width="60" height="30" as="geometry" />
        </mxCell>
        <mxCell id="RtoPhG0S8wIWp4orcQky-29" value="92" style="rounded=1;whiteSpace=wrap;html=1;" vertex="1" parent="1">
          <mxGeometry x="2370" y="680" width="120" height="60" as="geometry" />
        </mxCell>
        <mxCell id="RtoPhG0S8wIWp4orcQky-30" value="С результатом" style="text;html=1;strokeColor=none;fillColor=none;align=center;verticalAlign=middle;whiteSpace=wrap;rounded=0;" vertex="1" parent="1">
          <mxGeometry x="2450" y="640" width="60" height="30" as="geometry" />
        </mxCell>
        <mxCell id="RtoPhG0S8wIWp4orcQky-31" value="Егэ" style="rounded=1;whiteSpace=wrap;html=1;" vertex="1" parent="1">
          <mxGeometry x="2220" y="650" width="120" height="60" as="geometry" />
        </mxCell>
        <mxCell id="RtoPhG0S8wIWp4orcQky-32" value="" style="endArrow=none;html=1;rounded=0;entryX=0.5;entryY=1;entryDx=0;entryDy=0;" edge="1" parent="1" target="RtoPhG0S8wIWp4orcQky-15">
          <mxGeometry width="50" height="50" relative="1" as="geometry">
            <mxPoint x="2280" y="650" as="sourcePoint" />
            <mxPoint x="2330" y="600" as="targetPoint" />
            <Array as="points" />
          </mxGeometry>
        </mxCell>
        <mxCell id="RtoPhG0S8wIWp4orcQky-33" value="" style="endArrow=none;html=1;rounded=0;entryX=0.5;entryY=1;entryDx=0;entryDy=0;" edge="1" parent="1" target="RtoPhG0S8wIWp4orcQky-13">
          <mxGeometry width="50" height="50" relative="1" as="geometry">
            <mxPoint x="2280" y="650" as="sourcePoint" />
            <mxPoint x="2570" y="480" as="targetPoint" />
          </mxGeometry>
        </mxCell>
        <mxCell id="RtoPhG0S8wIWp4orcQky-34" value="В форме" style="text;html=1;strokeColor=none;fillColor=none;align=center;verticalAlign=middle;whiteSpace=wrap;rounded=0;" vertex="1" parent="1">
          <mxGeometry x="2340" y="640" width="60" height="30" as="geometry" />
        </mxCell>
        <mxCell id="RtoPhG0S8wIWp4orcQky-35" style="edgeStyle=orthogonalEdgeStyle;rounded=0;orthogonalLoop=1;jettySize=auto;html=1;entryX=0.5;entryY=0;entryDx=0;entryDy=0;" edge="1" parent="1" source="RtoPhG0S8wIWp4orcQky-36" target="RtoPhG0S8wIWp4orcQky-38">
          <mxGeometry relative="1" as="geometry" />
        </mxCell>
        <mxCell id="RtoPhG0S8wIWp4orcQky-36" value="Среднее&amp;nbsp;&lt;br&gt;образование" style="rounded=1;whiteSpace=wrap;html=1;" vertex="1" parent="1">
          <mxGeometry x="2040" y="260" width="120" height="60" as="geometry" />
        </mxCell>
        <mxCell id="RtoPhG0S8wIWp4orcQky-37" value="" style="endArrow=none;html=1;rounded=0;entryX=0;entryY=0.5;entryDx=0;entryDy=0;" edge="1" parent="1" source="RtoPhG0S8wIWp4orcQky-36" target="RtoPhG0S8wIWp4orcQky-8">
          <mxGeometry width="50" height="50" relative="1" as="geometry">
            <mxPoint x="2520" y="530" as="sourcePoint" />
            <mxPoint x="2570" y="480" as="targetPoint" />
          </mxGeometry>
        </mxCell>
        <mxCell id="RtoPhG0S8wIWp4orcQky-38" value="Право" style="rounded=1;whiteSpace=wrap;html=1;" vertex="1" parent="1">
          <mxGeometry x="2040" y="360" width="120" height="60" as="geometry" />
        </mxCell>
        <mxCell id="RtoPhG0S8wIWp4orcQky-39" value="По специальности" style="text;html=1;strokeColor=none;fillColor=none;align=center;verticalAlign=middle;whiteSpace=wrap;rounded=0;" vertex="1" parent="1">
          <mxGeometry x="2000" y="330" width="60" height="30" as="geometry" />
        </mxCell>
        <mxCell id="RtoPhG0S8wIWp4orcQky-40" style="edgeStyle=orthogonalEdgeStyle;rounded=0;orthogonalLoop=1;jettySize=auto;html=1;entryX=0.5;entryY=0;entryDx=0;entryDy=0;" edge="1" parent="1" source="RtoPhG0S8wIWp4orcQky-41" target="RtoPhG0S8wIWp4orcQky-36">
          <mxGeometry relative="1" as="geometry" />
        </mxCell>
        <mxCell id="RtoPhG0S8wIWp4orcQky-41" value="ОКБИ" style="rounded=1;whiteSpace=wrap;html=1;" vertex="1" parent="1">
          <mxGeometry x="2040" y="150" width="120" height="60" as="geometry" />
        </mxCell>
        <mxCell id="RtoPhG0S8wIWp4orcQky-42" style="edgeStyle=orthogonalEdgeStyle;rounded=0;orthogonalLoop=1;jettySize=auto;html=1;entryX=0.5;entryY=0;entryDx=0;entryDy=0;" edge="1" parent="1" source="RtoPhG0S8wIWp4orcQky-43" target="RtoPhG0S8wIWp4orcQky-41">
          <mxGeometry relative="1" as="geometry" />
        </mxCell>
        <mxCell id="RtoPhG0S8wIWp4orcQky-43" value="Казань" style="rounded=1;whiteSpace=wrap;html=1;" vertex="1" parent="1">
          <mxGeometry x="2040" y="60" width="120" height="60" as="geometry" />
        </mxCell>
        <mxCell id="RtoPhG0S8wIWp4orcQky-44" value="Где" style="text;html=1;strokeColor=none;fillColor=none;align=center;verticalAlign=middle;whiteSpace=wrap;rounded=0;" vertex="1" parent="1">
          <mxGeometry x="2010" y="230" width="60" height="30" as="geometry" />
        </mxCell>
        <mxCell id="RtoPhG0S8wIWp4orcQky-45" value="В регионе" style="text;html=1;strokeColor=none;fillColor=none;align=center;verticalAlign=middle;whiteSpace=wrap;rounded=0;" vertex="1" parent="1">
          <mxGeometry x="2110" y="120" width="60" height="30" as="geometry" />
        </mxCell>
        <mxCell id="RtoPhG0S8wIWp4orcQky-46" value="Получил образование" style="text;html=1;strokeColor=none;fillColor=none;align=center;verticalAlign=middle;whiteSpace=wrap;rounded=0;" vertex="1" parent="1">
          <mxGeometry x="2240" y="290" width="60" height="30" as="geometry" />
        </mxCell>
      </root>
    </mxGraphModel>
  </diagram>
</mxfile>
